Coordinates
version=1
nRows=10
nColumns=34
inDegrees=yes

Units are S.I. units (second, meters, Newtons, ...)
If the header above contains a line with 'inDegrees', this indicates whether rotational values are in degrees (yes) or radians (no).

endheader
time	pelvis_tilt	pelvis_list	pelvis_rotation	pelvis_tx	pelvis_ty	pelvis_tz	hip_flexion_r	hip_adduction_r	hip_rotation_r	knee_angle_r	ankle_angle_r	subtalar_angle_r	mtp_angle_r	hip_flexion_l	hip_adduction_l	hip_rotation_l	knee_angle_l	ankle_angle_l	subtalar_angle_l	mtp_angle_l	lumbar_extension	lumbar_bending	lumbar_rotation	arm_flex_r	arm_add_r	arm_rot_r	elbow_flex_r	pro_sup_r	arm_flex_l	arm_add_l	arm_rot_l	elbow_flex_l	pro_sup_l
      2.35000000	     -4.48814565	      1.90924778	     -1.59486248	      1.87744532	      0.92362248	     -0.16716730	      1.80905622	     -7.26502611	      3.82380967	      0.00000000	      0.72493010	    -22.16985083	      0.00000000	      1.02116175	     -4.75624985	     -4.58454399	      0.60647411	      2.87480891	     -2.85693391	      0.00000000	     -5.82968745	      0.20691400	     -0.96052011	      9.08017777	     -7.36258255	     36.25746959	     82.83288483	     82.69613382	      7.96966991	     -7.98209608	     31.10316133	     77.45887020	     88.28685122
      2.36666670	     -4.46867869	      1.95995585	     -1.57465020	      1.87746286	      0.92277377	     -0.16494604	      1.82128156	     -7.23688091	      3.82821036	      0.00000000	      0.72474779	    -22.16550977	      0.00000000	      1.02479675	     -4.77653902	     -4.58559078	      0.60335853	      2.87518870	     -2.85430255	      0.00000000	     -5.82929794	      0.22220248	     -0.96028469	      9.08587988	     -7.36505036	     36.26039800	     82.84014242	     82.69527172	      7.97412513	     -7.97709646	     31.10688443	     77.46296536	     88.28650181
      2.38333330	     -4.47624723	      1.79883036	     -1.52437021	      1.87761839	      0.92169494	     -0.16206780	      1.84646755	     -6.91016636	      3.88784607	      0.00000000	      0.74529714	    -22.12796200	      0.00000000	      1.06009905	     -5.10443200	     -4.59786254	      0.61450285	      2.85099133	     -2.76999337	      0.00000000	     -5.78651732	      0.27825312	     -0.89742532	      9.25820883	     -7.21654746	     36.37623890	     83.05714438	     82.68134557	      8.18923980	     -7.93868599	     31.13860401	     77.58351126	     88.27650739
      2.40000000	     -4.48625881	      1.59545176	     -1.55682216	      1.87737233	      0.92112112	     -0.15891267	      1.90427152	     -6.51340685	      3.88855466	      0.00000000	      0.83783940	    -22.15699281	      0.00000000	      1.14515702	     -5.51055906	     -4.73613581	      0.74908113	      2.82916112	     -2.65958706	      0.00000000	     -5.92703524	      0.63567590	     -0.77586648	      9.37389713	     -7.13116722	     36.67109903	     83.41360362	     82.65121307	      8.41234167	     -7.95953015	     31.25603214	     77.79952422	     88.25613457
      2.41666670	     -4.45665361	      1.58393957	     -1.62820000	      1.87680475	      0.92176337	     -0.15600447	      1.90916597	     -6.32940699	      3.86799947	      0.00000000	      0.86339123	    -22.17807142	      0.00000000	      1.12511378	     -5.70268331	     -4.76186548	      0.80480525	      2.83522441	     -2.62149345	      0.00000000	     -5.91622636	      0.59657039	     -0.75515047	      9.43951477	     -7.13152918	     36.76751140	     83.54356932	     82.64016569	      8.45827590	     -7.94346250	     31.31375105	     77.88432606	     88.24871438
      2.43333330	     -4.43950324	      1.67867002	     -1.61379194	      1.87613006	      0.92216701	     -0.15361716	      1.91236136	     -6.28127623	      3.86723127	      0.00000000	      0.86486199	    -22.17902143	      0.00000000	      1.13609728	     -5.75341242	     -4.76582270	      0.79564876	      2.83621072	     -2.62119930	      0.00000000	     -5.91590884	      0.60847055	     -0.75126096	      9.44496954	     -7.12952804	     36.77471271	     83.55135946	     82.63961288	      8.46163479	     -7.93642373	     31.31808235	     77.89125374	     88.24835884
      2.45000000	     -4.25427344	      1.28528066	     -1.74183410	      1.87512646	      0.92242343	     -0.15054598	      1.78859905	     -5.59797297	      3.99281955	      0.00000000	      0.89792128	    -22.37617152	      0.00000000	      1.03357643	     -6.45458804	     -5.28522394	      0.94607612	      3.07360262	     -2.06303148	      0.00000000	     -6.57613440	      1.06067100	     -0.41016500	     10.05782578	     -7.54463108	     38.39326920	     84.84033318	     82.43930192	      8.82310730	     -8.14156287	     32.05076515	     78.95353607	     88.10019851
      2.46666670	     -4.21870778	      1.26255336	     -1.76127886	      1.87459794	      0.92247883	     -0.14741099	      1.79420558	     -5.35619741	      3.93935766	      0.00000000	      0.92277620	    -22.42013479	      0.00000000	      1.05111176	     -6.70714974	     -5.29645250	      0.98092024	      2.98534497	     -2.01919886	      0.00000000	     -6.58019653	      0.96320726	     -0.34788622	     10.11458009	     -7.38682353	     38.44967740	     84.86026095	     82.42737140	      8.84136854	     -8.08004372	     32.05912384	     78.97876056	     88.09049555
      2.48333330	     -4.20914450	      1.17036692	     -1.74784546	      1.87402767	      0.92225680	     -0.14396466	      1.82842036	     -5.02086208	      3.87072378	      0.00288697	      0.98354298	    -22.49886112	      0.00000000	      1.13810717	     -7.06893195	     -5.39722150	      1.06503740	      2.83219505	     -1.97967366	      0.00000000	     -6.68861755	      0.99550047	     -0.21616808	     10.17345302	     -7.13092116	     38.57561913	     84.85587522	     82.41251262	      8.88817791	     -7.96408928	     32.07388452	     79.03099563	     88.07746115
      2.50000000	     -4.18005158	      1.05555109	     -1.79842408	      1.87355736	      0.92221118	     -0.14077912	      1.86724119	     -4.66623893	      3.82802195	      0.01721662	      1.06048734	    -22.57597324	      0.00000000	      1.26720759	     -7.47350929	     -5.56601435	      1.31588026	      2.57488703	     -1.91779225	      0.00000000	     -6.82445649	      1.16759689	     -0.08738775	     10.21543267	     -6.91556499	     38.74400351	     84.80691157	     82.39342222	      8.95700643	     -7.81565322	     32.09203394	     79.11535518	     88.06114698
